<?xml version="1.0" encoding="UTF-8" standalone="no"?>
<svg
   style="enable-background:new 0 0 67 67;"
   version="1.1"
   viewBox="0 0 67 67"
   xml:space="preserve"
   id="svg4"
   sodipodi:docname="discord.svg"
   inkscape:version="1.2.2 (b0a8486541, 2022-12-01)"
   xmlns:inkscape="http://www.inkscape.org/namespaces/inkscape"
   xmlns:sodipodi="http://sodipodi.sourceforge.net/DTD/sodipodi-0.dtd"
   xmlns="http://www.w3.org/2000/svg"
   xmlns:svg="http://www.w3.org/2000/svg"><defs
     id="defs8" /><sodipodi:namedview
     id="namedview6"
     pagecolor="#ffffff"
     bordercolor="#000000"
     borderopacity="0.25"
     inkscape:showpageshadow="2"
     inkscape:pageopacity="0.0"
     inkscape:pagecheckerboard="0"
     inkscape:deskcolor="#d1d1d1"
     showgrid="false"
     inkscape:zoom="7.6641791"
     inkscape:cx="15.657254"
     inkscape:cy="37.903603"
     inkscape:window-width="2560"
     inkscape:window-height="1387"
     inkscape:window-x="0"
     inkscape:window-y="25"
     inkscape:window-maximized="1"
     inkscape:current-layer="svg4" /><path
     id="path883"
     style="fill-opacity:1;paint-order:fill markers stroke"
     d="M 33.000004,4 A 29.99995,29.99995 0 0 0 3.0001447,34.000145 29.99995,29.99995 0 0 0 33.000004,64 29.99995,29.99995 0 0 0 62.999855,34.000145 29.99995,29.99995 0 0 0 33.000004,4 Z m -5.222553,15.839849 c 0.318506,0.586717 0.718737,1.382976 0.98276,2.007422 2.840335,-0.416993 5.699985,-0.416993 8.579939,0 0.264025,-0.624446 0.641205,-1.420705 0.982753,-2.007422 2.707927,0.454073 5.302317,1.269172 7.745156,2.386042 h 0.0065 c 4.240711,6.192181 6.346723,13.198367 5.531603,21.265103 -3.240147,2.366992 -6.402593,3.806136 -9.489138,4.753266 -0.758543,-1.022576 -1.439522,-2.121569 -2.026239,-3.276138 1.117064,-0.416994 2.179541,-0.928281 3.20001,-1.533863 -0.264016,-0.188576 -0.513446,-0.396023 -0.777478,-0.605562 -6.097665,2.821479 -12.783853,2.821479 -18.957177,0 -0.249359,0.207437 -0.513462,0.416986 -0.777486,0.605562 1.022356,0.605582 2.083155,1.116869 3.200018,1.533863 -0.586717,1.154986 -1.267697,2.253562 -2.026239,3.276138 -3.088516,-0.946925 -6.232156,-2.386274 -9.489495,-4.753266 -0.662576,-6.968525 0.662981,-14.031495 5.567529,-21.265103 2.42567,-1.118335 5.01981,-1.931334 7.746576,-2.386042 z m -0.950538,11.854084 c -1.893426,0 -3.370794,1.685139 -3.370794,3.749126 0,2.064623 1.514245,3.749412 3.370794,3.749412 1.874355,0 3.370504,-1.685411 3.370504,-3.749412 0.03792,-2.064608 -1.497197,-3.749126 -3.370504,-3.749126 z m 12.442825,0 c -1.893009,0 -3.372505,1.685139 -3.372505,3.749126 0,2.064623 1.518052,3.749412 3.372505,3.749412 1.893419,0 3.370795,-1.685411 3.370795,-3.749412 0.03792,-2.064608 -1.497481,-3.749126 -3.370795,-3.749126 z" /></svg>
