<?xml version="1.0" encoding="UTF-8" standalone="no"?>
<svg
   width="24"
   height="24"
   viewBox="0 0 24 24"
   version="1.1"
   id="svg4"
   xml:space="preserve"
   xmlns="http://www.w3.org/2000/svg"
   xmlns:svg="http://www.w3.org/2000/svg"><defs
     id="defs8" /><path
     id="path353"
     d="M 12.000001,0 C 5.3832063,0 0,5.3832066 0,12 0,18.616793 5.3832063,24 12.000001,24 18.616794,24 24,18.616793 24,12 24,5.3832066 18.616794,0 12.000001,0 Z M 6.0890619,6 H 18.876563 v 8.8125 l -3.761719,3.761719 H 12.323438 L 10.495312,20.4 H 8.5617184 V 18.574219 H 5.1234375 V 8.4726563 Z m 1.1835937,1.2890626 v 9.0257814 h 2.9015634 v 1.828125 l 1.825782,-1.828125 h 3.438281 L 17.5875,14.165626 V 7.2890626 Z M 10.708594,9.759375 h 1.291407 v 3.757031 h -1.291407 z m 3.440625,0 h 1.289063 v 3.757031 h -1.289063 z"
     style="stroke-width:1.2" /></svg>